PathFileType	4	(X/Y/Z)	C:\Users\WrightLab\Desktop\Jo\P5V27.trc
DataRate	CameraRate	NumFrames	NumMarkers	Units	OrigDataRate	OrigDataStartFrame	OrigNumFrames
100.00	100.00	       10	19	mm	100.00	410	       819
Frame#	Time	Headset_Front			Headset_Back			Headset_Left			Headset_Right			Left_Shoulder			Right_Shoulder			Sternum			C7			Left Elbow			Right Elbow			Left Wrist			Right Wrist			Left ASIS			Right ASIS			S2			Left Knee			Right Knee			Left Ankle			Right Ankle			
		X1	Y1	Z1	X2	Y2	Z2	X3	Y3	Z3	X4	Y4	Z4	X5	Y5	Z5	X6	Y6	Z6	X7	Y7	Z7	X8	Y8	Z8	X9	Y9	Z9	X10	Y10	Z10	X11	Y11	Z11	X12	Y12	Z12	X13	Y13	Z13	X14	Y14	Z14	X15	Y15	Z15	X16	Y16	Z16	X17	Y17	Z17	X18	Y18	Z18	X19	Y19	Z19	

410	4.090	-281.34540	1408.63721	99.69352				-139.52162	1548.42200	30.34642	-368.85559	1523.44202	58.50379	-57.42719	1511.26294	-191.94650	-430.11118	1437.09033	-59.10186	-230.85468	1293.08252	-98.54416	-304.41406	1539.04456	-235.32469	26.55447	1232.08655	-280.22543	-567.71991	1191.17554	0.70807	9.56787	997.05182	-198.62048	-578.94324	1003.76721	173.41458	-84.49941	923.50244	-187.26071	-365.09882	922.79199	-105.15118	-248.54588	1013.50598	-390.40305	-76.51179	497.78375	-220.07167	-433.40509	498.08609	-166.73485	-46.84537	96.19227	-378.86343	-379.10016	96.57285	-247.14034	
411	4.100	-287.39450	1408.06885	101.11417				-144.18896	1547.99854	31.14455	-373.73441	1522.74756	59.00644	-61.68232	1510.51074	-189.73203	-433.71219	1435.29529	-59.43962	-233.60674	1292.91589	-96.51793	-306.56476	1538.59277	-234.56529	26.25143	1234.60815	-274.81500	-571.40918	1189.99500	-0.77166	8.83466	997.86871	-197.70479	-585.22559	1002.54694	172.80051	-86.12299	923.77631	-187.42474	-365.57471	922.47607	-104.87150	-248.54807	1013.64691	-390.13828	-76.25894	497.88477	-219.66521	-432.93655	498.30817	-166.59720	-47.07901	96.60590	-378.84955	-379.12000	96.59115	-247.15999	
412	4.110	-292.30414	1406.49683	101.85901				-148.53754	1546.92285	34.88433	-378.45016	1522.05566	59.56000	-64.40529	1510.91199	-187.37073	-437.08789	1433.73193	-59.26400	-235.75993	1292.66870	-95.76611	-309.42880	1538.49023	-233.11897	25.42570	1235.62573	-272.34277	-575.21228	1189.04688	-1.97996	8.10925	998.76550	-195.40445	-592.26733	1001.69592	171.43523	-86.63354	924.90076	-186.01057	-366.83945	921.11249	-105.83362	-248.56711	1014.03619	-389.86673	-75.53246	498.36407	-218.86746	-433.08688	497.91125	-167.69333	-47.31792	96.77895	-378.77982	-379.11487	96.60416	-247.13594	
413	4.120	-295.74423	1407.06519	105.65775				-152.96442	1546.20813	36.76492	-383.47928	1521.78906	60.30550	-67.23360	1511.86353	-184.31696	-439.91553	1432.92395	-58.91018	-238.37737	1292.85742	-94.94147	-311.85608	1538.20654	-232.17279	24.40523	1235.89636	-268.83563	-578.61353	1188.11926	-2.76402	7.34213	999.66559	-194.14824	-598.01923	1000.59912	170.45328	-86.16837	926.63501	-183.51152	-367.17993	919.85736	-105.96977	-248.92883	1014.94629	-390.17981	-75.28674	498.31787	-218.89101	-432.58752	497.55844	-168.09097	-47.32778	97.24326	-379.17261	-379.10974	96.58986	-247.12831	
414	4.130	-301.00391	1406.26758	106.80531				-157.16344	1545.36804	38.70700	-388.54425	1521.07019	59.78529	-70.65769	1512.57739	-182.42909	-444.53952	1432.07776	-59.41949	-241.35605	1292.17212	-94.95908	-314.38116	1537.81396	-231.03680	23.62097	1238.59387	-268.28818	-582.03564	1186.71484	-2.98707	6.16982	1000.80896	-193.30557	-604.18756	1000.04523	169.93440	-86.64224	926.88751	-183.36729	-367.34637	919.57538	-105.37022	-248.80280	1015.71179	-390.14230	-74.95514	498.62842	-218.40858	-432.35840	497.39880	-168.36565	-47.20247	97.39967	-378.79483	-379.09360	96.54778	-247.14709	
415	4.140	-305.97479	1405.33948	107.92509				-161.60080	1544.82178	40.30607	-392.73718	1519.81958	60.51272	-72.73512	1513.87378	-179.48320	-447.79944	1430.58374	-59.82886	-242.79126	1292.31714	-93.29846	-317.80106	1537.90906	-230.21661	20.84023	1238.68640	-265.18045	-585.67377	1185.65588	-3.93945	5.96830	1002.08423	-191.74150	-610.09711	999.44794	169.02397	-86.78529	927.27222	-182.50337	-368.47641	918.16632	-106.68211	-249.03731	1016.13232	-390.02347	-74.82689	498.67810	-218.37704	-432.22025	497.18591	-168.60631	-47.40385	97.42772	-378.42035	-379.07193	96.52240	-247.14856	
416	4.150	-310.52274	1404.69958	108.66155				-165.75378	1543.74988	44.17804	-396.88525	1519.83533	60.74132	-75.90728	1514.31421	-178.29207	-451.15726	1429.39453	-59.74126	-245.52609	1291.39917	-93.30120	-320.02921	1537.63354	-229.20296	18.85038	1239.64221	-263.09052	-589.10870	1184.23291	-4.70512	5.21004	1002.56488	-190.84543	-616.19604	998.05566	168.33885	-87.03661	927.90668	-181.84436	-369.11417	917.65314	-106.97886	-249.23195	1016.29590	-389.97614	-74.14091	499.14462	-218.45035	-431.86252	497.33429	-170.51857	-47.44925	97.48226	-378.04581	-379.08826	96.52666	-247.14220	
417	4.160	-315.26294	1403.78186	109.45652				-170.18428	1543.07458	44.90982	-401.23953	1518.85498	61.47383	-78.91351	1515.70166	-176.03075	-453.66678	1428.52002	-59.08717	-247.77849	1291.17529	-92.06296	-323.18289	1537.06030	-228.24875	18.44418	1241.56848	-262.43674	-592.79773	1183.12732	-5.33881	4.16307	1003.86334	-188.77510	-623.13269	997.20355	167.63661	-87.68218	929.39313	-181.61847	-369.22043	916.60828	-107.58051	-249.68022	1016.70233	-390.00641	-73.99625	499.11438	-218.25339	-431.10425	497.43549	-170.76169	-47.32885	97.35002	-378.27954	-379.05814	96.45904	-247.16257	
418	4.170	-319.74435	1402.82898	110.03876							-405.86542	1518.42468	61.32067	-82.11966	1515.40552	-173.42830	-457.19443	1426.99133	-59.00863	-250.31804	1290.60901	-92.03812	-325.70627	1536.64502	-226.60324	16.77873	1242.51550	-261.23663	-596.50012	1182.30859	-6.66849	3.25803	1004.73492	-187.86717	-628.26819	996.23163	167.55653	-88.61769	930.25079	-180.90234	-369.77676	916.15283	-108.04760	-250.29002	1017.09979	-389.91092	-72.89511	499.39163	-217.77139	-430.49930	496.47354	-171.29637	-47.42754	97.51840	-378.03070	-379.08960	96.39548	-247.21231	
419	4.180	-324.38550	1402.26794	110.76553							-409.92917	1517.42578	62.19482	-85.50859	1516.31165	-171.85504	-460.08600	1425.98523	-58.94307	-252.81949	1290.79004	-90.47961	-328.17593	1536.13171	-226.18262	16.73621	1244.10876	-259.33749	-599.73828	1181.12817	-6.69646	2.79093	1005.62933	-185.86470	-633.91193	995.43018	166.28859	-88.96642	930.48755	-180.79639	-370.04141	915.49677	-109.25105	-251.07753	1017.56219	-389.99942	-71.85727	499.60193	-217.66565	-430.79852	496.63522	-171.54819	-47.26147	97.51180	-378.11133	-379.19504	96.19771	-247.42268	
